<?xml version="1.0" encoding="utf-8"?>
<!-- Generator: Adobe Illustrator 23.1.0, SVG Export Plug-In . SVG Version: 6.00 Build 0)  -->
<svg version="1.1" id="Capa_1" xmlns="http://www.w3.org/2000/svg" xmlns:xlink="http://www.w3.org/1999/xlink" x="0px" y="0px"
	 viewBox="0 0 49.4 49.4" style="enable-background:new 0 0 49.4 49.4;" xml:space="preserve">
<style type="text/css">
	.st0{fill:#0064AA;}
</style>
<g>
	<g>
		<g>
			<path class="st0" d="M8,49.4h33.4c1.1,0,2-0.9,2-2V11.7c0-0.8-0.5-1.9-1.1-2.4l-9.6-8.4C32.1,0.4,31.1,0,30.3,0H8
				C6.9,0,6,0.9,6,2v45.4C6,48.5,6.9,49.4,8,49.4z M32.3,4.5l5.9,5.2h-5.9L32.3,4.5z M9,3h20.3v7.7c0,1.1,0.9,2,2,2h9.1v33.7H9V3z"
				/>
		</g>
	</g>
	<rect x="7.8" y="2.2" class="st0" width="22.9" height="45.2"/>
	<rect x="29.4" y="11.4" class="st0" width="11.6" height="37"/>
</g>
</svg>
